<?xml version="1.0" encoding="UTF-8" standalone="no"?>
<svg xmlns="http://www.w3.org/2000/svg" width="52.916668mm" height="52.916668mm" viewBox="0 0 52.916668 52.916668">
  <g transform="matrix(7.0781 0 0 7.08005 -776.798343 -1005.01529)">
    <path fill="#c41090" d="M110.84401 148.85302c-.24881-.0549-.4388-.23296-.51626-.48395-.0185-.0598-.0192-.17165-.0192-2.68743v-2.62505l.0297-.0839c.0746-.21099.21926-.35742.42885-.43398l.077-.0281 2.6093-.003c2.9215-.003 2.6819-.009 2.84853.0739.11903.0596.22871.16926.28829.28829.0834.16663.0772-.073.0739 2.84852l-.003 2.60931-.0233.0684c-.0698.20495-.23338.36909-.43647.43788l-.0862.0292-2.60406.002c-2.1264.002-2.6156-.0007-2.66705-.012zm4.21934-1.42833c.16219-.0213.28372-.0576.42175-.12627.23142-.11504.38583-.28428.47433-.51991.0466-.12397.0653-.21766.0775-.38689.0264-.36669-.034-.67292-.17447-.88418-.17325-.2606-.48441-.4017-.84577-.38353-.24069.0121-.4111.0689-.55958.18655-.0283.0224-.0525.0395-.0538.038-.001-.002.011-.16345.0273-.3598.0163-.19635.0299-.36291.0302-.37013.00037-.0104.14013-.0131.66246-.0131h.66199l.0263-.0263.0263-.0263-.003-.25282c-.003-.23614-.004-.25379-.0235-.2677-.0172-.0126-.166-.0149-.9634-.0149-.51865 0-.94301.003-.94301.007s-.0285.38329-.0635.84264c-.0349.45936-.0608.84585-.0575.85888.005.0185.0541.0478.22611.13388.12111.0606.22911.11019.24001.11019.0114 0 .0497-.0334.09-.0784.12989-.14513.27862-.22194.45214-.23351.29184-.0195.49748.11731.55749.37077.0231.0974.0233.33011.00036.4268-.0602.25433-.24549.39672-.51543.3962-.29589-.00056-.50833-.14202-.59893-.3988-.0406-.11513-.0642-.11622-.33162-.0153-.11792.0445-.22315.0886-.23385.0979-.0154.0135-.0186.0279-.0151.0698.005.0653.0892.24503.16604.35617.0697.10078.20382.2292.30569.29264.24625.15335.58904.21558.9366.17002zm-2.62472-.0585.0277-.0218v-2.74953h.46073c.41548 0 .46214-.002.47513-.0173.0111-.0134.0151-.0745.0176-.26723.003-.24012.002-.25073-.0184-.27141-.0215-.0215-.0253-.0215-1.27571-.0215h-1.25418l-.0163.0233c-.0243.0346-.0243.4962 0 .53084l.0163.0233h.92283l.00016 1.3729c.00008.7551.004 1.37804.008 1.3843.0214.0316.055.0352.32918.0355.26708.0003.28069-.00065.30713-.0214z"/>
    <path fill="#fff" d="M110.77051 149.40864c-.51262-.0866-.92451-.50093-1.00765-1.01357-.0141-.0868-.016-.41815-.0161-2.70479-.00003-1.79748.003-2.63103.0112-2.68688.0535-.38454.30243-.73648.6482-.91637.0911-.0474.15639-.0725.28556-.10978l.0787-.0227 2.6721-.003c2.36706-.003 2.6828-.001 2.76577.0132.50396.087.91048.49287.99836.99682.0142.0816.0162.40379.0162 2.72537 0 2.8687.003 2.70764-.0588 2.89328-.12285.36758-.41263.65886-.77687.78089-.20313.0681-.0161.064-2.90643.0628-2.15424-.00088-2.6414-.004-2.7103-.0153zm5.43086-.57465c.20309-.0688.36671-.23293.43647-.43788l.0233-.0684.003-2.60931c.003-2.9215.009-2.68189-.0739-2.84852-.0596-.11903-.16926-.22871-.28829-.28829-.16663-.0834.073-.0772-2.84853-.0739l-2.6093.003-.077.0281c-.10517.0384-.18179.0862-.25815.16087-.0781.0764-.13123.16141-.1707.27311l-.0297.0839v2.62505c0 2.51578.0008 2.62765.0192 2.68743.0775.25099.26745.42909.51626.48395.0515.0113.54065.0136 2.66705.012l2.60406-.002zm-1.55628-1.40565c-.27121-.0302-.50652-.13534-.68422-.30582-.10442-.10018-.17667-.20266-.24769-.35134-.0619-.12959-.076-.2063-.0431-.23509.0107-.009.11593-.0534.23385-.0979.26743-.10093.291-.0998.33162.0153.0906.25678.30304.39824.59893.3988.26994.00052.45519-.14187.51543-.3962.0229-.0967.0227-.32937-.00036-.4268-.06-.25346-.26565-.39023-.55749-.37077-.17352.0116-.32225.0884-.45214.23351-.0403.0451-.0786.0784-.09.0784-.0109 0-.1189-.0496-.24001-.11019-.17198-.0861-.22149-.11538-.22611-.13388-.003-.013.0226-.39952.0575-.85888.0349-.45935.0635-.83854.0635-.84264 0-.004.42436-.007.94301-.007.7974 0 .94616.002.9634.0149.019.0139.0206.0316.0235.2677l.003.25282-.0263.0263-.0263.0263h-.66199c-.52233 0-.66209.003-.66246.0131-.00026.007-.0138.17378-.0302.37013-.0163.19635-.0286.35826-.0273.3598.001.002.0255-.0156.0538-.038.14848-.11763.31889-.17444.55958-.18655.28786-.0145.5381.0676.71576.23472.14728.13854.23294.29739.27809.51567.0401.19383.0401.54496.00011.73436-.0211.0999-.0771.24793-.12218.32291-.052.0866-.14188.19036-.21991.25399-.0848.0692-.26942.16185-.39206.19683-.18088.0516-.42251.0692-.63143.046zm-2.81406-.053c-.0115-.007-.0245-.017-.0287-.0233-.004-.006-.008-.6292-.008-1.3843l-.00016-1.3729h-.92283l-.0163-.0233c-.0243-.0346-.0243-.4962 0-.53084l.0163-.0233h1.25418c1.25041 0 1.25425.00006 1.27571.0215.0207.0207.0214.0313.0184.27141-.002.19272-.006.25386-.0176.26723-.013.0156-.0597.0173-.47513.0173h-.46073v2.74953l-.0277.0218c-.0264.0208-.0401.0217-.30713.0214-.18844-.00022-.28631-.004-.30047-.0122z"/>
  </g>
</svg>